<svg id="Layer_1" data-name="Layer 1" xmlns="http://www.w3.org/2000/svg" viewBox="0 0 27.57 27.57"><defs><style>.cls-1{fill:#0072b4;fill-rule:evenodd;}</style></defs><path class="cls-1" d="M58.05,43.91,59.91,54.2l1.91-10.29h1.91V36.27H56v7.64Zm5.68,19.94H56V61.94L45.8,60.08,56,58.23v-2h7.69v7.64Zm-22-7.64h2v7.64H36.15V56.21h1.91L39.92,46l1.85,10.23Zm2-14.26L54,40.09,43.79,38.18V36.27H36.15v7.64h7.64Z" transform="translate(-36.15 -36.27)"/><path class="cls-1" d="M44.54,49.71l3.29-.9-.29-1,2.67-1.35-3,.16-.29-1.07-3.28.91.9,3.28Zm11.7,4L53,54.56l-.29-1-3,.16,2.67-1.35-.28-1.07,3.32-.86.86,3.28Zm-6.65,1.77-.86-3.29-1.07.29-1.35-2.67.16,3-1,.25.87,3.32,3.28-.9Zm4-11.7L54.48,47l-1.07.29.16,3-1.35-2.67-1,.24-.9-3.28,3.28-.86Z" transform="translate(-36.15 -36.27)"/></svg>